# xmcd
#
# Track frame offsets:
#	150
#	10350
#	29070
#	53882
#	73282
#	92847
#	107505
#	122820
#	141885
#	155672
#	174445
#
# Disc length: 2577 seconds
#
# Revision: 0
# Processed by: cddbd v1.5.1PL2 Copyright (c) Steve Scherf et al.
# Submitted via: audiograbber 1.82.01
#
DISCID=9d0a0f0b
DTITLE=Temerarios - En concierto Vol. 2
DYEAR=1997
DGENRE=
TTITLE0=Introducción
TTITLE1=Mi vida eres tu
TTITLE2=Dimelo
TTITLE3=Acepta mi error
TTITLE4=La tricionera
TTITLE5=Te quiero
TTITLE6=Una lagrima mas
TTITLE7=Faltas tu
TTITLE8=Soy un solitario
TTITLE9=Una miradita
TTITLE10=Ya me voy para siempre
EXTD=
EXTT0=
EXTT1=
EXTT2=
EXTT3=
EXTT4=
EXTT5=
EXTT6=
EXTT7=
EXTT8=
EXTT9=
EXTT10=
PLAYORDER=
